<svg width="18" height="18" viewBox="0 0 18 18" fill="none" xmlns="http://www.w3.org/2000/svg">
<path d="M14.6602 10.7227L9.59765 15.7852C9.43843 15.9423 9.22372 16.0304 9 16.0304C8.77628 16.0304 8.56156 15.9423 8.40234 15.7852L3.33984 10.7227C3.18133 10.5641 3.09229 10.3492 3.09229 10.125C3.09229 9.90084 3.18133 9.68585 3.33984 9.52734C3.49835 9.36884 3.71333 9.27979 3.9375 9.27979C4.16166 9.27979 4.37665 9.36884 4.53515 9.52734L8.15625 13.1484V2.8125C8.15625 2.58872 8.24514 2.37411 8.40338 2.21588C8.56161 2.05764 8.77622 1.96875 9 1.96875C9.22377 1.96875 9.43838 2.05764 9.59662 2.21588C9.75485 2.37411 9.84375 2.58872 9.84375 2.8125V13.1484L13.4648 9.52734C13.6233 9.36884 13.8383 9.27979 14.0625 9.27979C14.2867 9.27979 14.5016 9.36884 14.6602 9.52734C14.8187 9.68585 14.9077 9.90084 14.9077 10.125C14.9077 10.3492 14.8187 10.5641 14.6602 10.7227Z" fill="black"/>
</svg>
