<svg width="898" height="318" viewBox="0 0 898 318" fill="none" xmlns="http://www.w3.org/2000/svg">
<mask id="mask0_1_3018" style="mask-type:alpha" maskUnits="userSpaceOnUse" x="0" y="0" width="901" height="330">
<path d="M154.242 118.31C84.395 116.65 17.9753 194.633 0 227.151V329.924H900.443V73.4236C817.112 70.9236 790.76 14.5287 726.883 14.5287C663.007 14.5287 605.336 96.1688 572.809 139.064C546.103 177.255 512.036 185.419 498.34 184.728C434.656 186.388 386.209 101.012 369.945 58.1168C355.565 9.96218 339.375 5.31681e-05 331.427 0.000112002C318.091 -0.0309337 298.044 14.1142 277.501 62.2679C256.958 110.422 224.431 123.844 210.736 124.536C191.58 125.504 168.793 118.31 154.242 118.31Z" fill="url(#paint0_linear_1_3018)"/>
</mask>
<g mask="url(#mask0_1_3018)">
<path opacity="0.1" d="M154.242 118.31C84.395 116.65 17.9753 194.633 0 227.151V329.924H900.443V73.4236C817.112 70.9236 790.76 14.5287 726.883 14.5287C663.007 14.5287 605.336 96.1688 572.809 139.064C546.103 177.255 512.036 185.419 498.34 184.728C434.656 186.388 386.209 101.012 369.945 58.1168C355.565 9.96218 339.375 5.31681e-05 331.427 0.000112002C318.091 -0.0309337 298.044 14.1142 277.501 62.2679C256.958 110.422 224.431 123.844 210.736 124.536C191.58 125.504 168.793 118.31 154.242 118.31Z" fill="#3751FF"/>
</g>
<defs>
<linearGradient id="paint0_linear_1_3018" x1="871.087" y1="169.424" x2="10.6167" y2="169.424" gradientUnits="userSpaceOnUse">
<stop stop-color="white" stop-opacity="0"/>
<stop offset="1" stop-color="white"/>
</linearGradient>
</defs>
</svg>
