<svg width="19" height="19" viewBox="0 0 19 19" fill="none" xmlns="http://www.w3.org/2000/svg">
<path d="M17.8229 4.4375V8.9375C17.8229 9.16128 17.734 9.37589 17.5758 9.53412C17.4176 9.69235 17.203 9.78125 16.9792 9.78125C16.7554 9.78125 16.5408 9.69235 16.3826 9.53412C16.2243 9.37589 16.1354 9.16128 16.1354 8.9375V6.47656L10.8268 11.7852C10.7485 11.8638 10.6553 11.9262 10.5528 11.9688C10.4502 12.0114 10.3402 12.0333 10.2292 12.0333C10.1181 12.0333 10.0082 12.0114 9.90562 11.9688C9.80306 11.9262 9.70992 11.8638 9.63153 11.7852L7.41668 9.57031L2.95184 14.0352C2.79262 14.1923 2.5779 14.2804 2.35418 14.2804C2.13046 14.2804 1.91575 14.1923 1.75653 14.0352C1.67787 13.9568 1.61545 13.8636 1.57287 13.7611C1.53028 13.6585 1.50836 13.5485 1.50836 13.4375C1.50836 13.3265 1.53028 13.2165 1.57287 13.1139C1.61545 13.0114 1.67787 12.9182 1.75653 12.8398L6.81903 7.77734C6.89742 7.69868 6.99056 7.63627 7.09312 7.59369C7.19568 7.5511 7.30563 7.52918 7.41668 7.52918C7.52773 7.52918 7.63769 7.5511 7.74025 7.59369C7.84281 7.63627 7.93595 7.69868 8.01434 7.77734L10.2292 9.99219L14.9401 5.28125H12.4792C12.2554 5.28125 12.0408 5.19236 11.8826 5.03412C11.7243 4.87589 11.6354 4.66128 11.6354 4.4375C11.6354 4.21372 11.7243 3.99911 11.8826 3.84088C12.0408 3.68264 12.2554 3.59375 12.4792 3.59375H16.9792C17.203 3.59375 17.4176 3.68264 17.5758 3.84088C17.734 3.99911 17.8229 4.21372 17.8229 4.4375Z" fill="url(#paint0_linear_1_3198)"/>
<defs>
<linearGradient id="paint0_linear_1_3198" x1="15.7071" y1="15.9224" x2="-0.798711" y2="14.3194" gradientUnits="userSpaceOnUse">
<stop stop-color="#35C3F3"/>
<stop offset="0.264988" stop-color="#8B9FE8"/>
<stop offset="0.525409" stop-color="#E681D8"/>
<stop offset="0.744796" stop-color="#FFA9A4"/>
<stop offset="1" stop-color="#FED2CE"/>
<stop offset="1" stop-color="#FED2CE"/>
</linearGradient>
</defs>
</svg>
