<svg width="173" height="46" viewBox="0 0 173 46" fill="none" xmlns="http://www.w3.org/2000/svg">
<g filter="url(#filter0_d_1_3027)">
<mask id="path-1-outside-1_1_3027" maskUnits="userSpaceOnUse" x="4" y="3.00006" width="165" height="38" fill="black">
<rect fill="white" x="4" y="3.00006" width="165" height="38"/>
<path fill-rule="evenodd" clip-rule="evenodd" d="M9 4.00006H164C166.209 4.00006 168 5.79092 168 8.00006V30.0001C168 32.2092 166.209 34.0001 164 34.0001L94 34.0001L87.2603 39.7769C87.1105 39.9053 86.8895 39.9053 86.7397 39.7769L80 34.0001L9 34.0001C6.79086 34.0001 5 32.2092 5 30.0001V8.00006C5 5.79092 6.79086 4.00006 9 4.00006Z"/>
</mask>
<path fill-rule="evenodd" clip-rule="evenodd" d="M9 4.00006H164C166.209 4.00006 168 5.79092 168 8.00006V30.0001C168 32.2092 166.209 34.0001 164 34.0001L94 34.0001L87.2603 39.7769C87.1105 39.9053 86.8895 39.9053 86.7397 39.7769L80 34.0001L9 34.0001C6.79086 34.0001 5 32.2092 5 30.0001V8.00006C5 5.79092 6.79086 4.00006 9 4.00006Z" fill="white"/>
<path d="M164 34.0001V34.5001V34.0001ZM94 34.0001V33.5001H93.815L93.6746 33.6204L94 34.0001ZM87.2603 39.7769L86.9349 39.3973L86.9349 39.3973L87.2603 39.7769ZM86.7397 39.7769L87.0651 39.3973L87.0651 39.3973L86.7397 39.7769ZM80 34.0001L80.3254 33.6204L80.185 33.5001H80V34.0001ZM9 34.0001V34.5001V34.0001ZM164 3.50006H9V4.50006H164V3.50006ZM168.5 8.00006C168.5 5.51478 166.485 3.50006 164 3.50006V4.50006C165.933 4.50006 167.5 6.06706 167.5 8.00006H168.5ZM168.5 30.0001V8.00006H167.5V30.0001H168.5ZM164 34.5001C166.485 34.5001 168.5 32.4853 168.5 30.0001H167.5C167.5 31.9331 165.933 33.5001 164 33.5001V34.5001ZM94 34.5001L164 34.5001V33.5001L94 33.5001V34.5001ZM93.6746 33.6204L86.9349 39.3973L87.5857 40.1566L94.3254 34.3797L93.6746 33.6204ZM86.9349 39.3973C86.9724 39.3652 87.0276 39.3652 87.0651 39.3973L86.4143 40.1566C86.7513 40.4455 87.2487 40.4455 87.5857 40.1566L86.9349 39.3973ZM87.0651 39.3973L80.3254 33.6204L79.6746 34.3797L86.4143 40.1566L87.0651 39.3973ZM9 34.5001L80 34.5001V33.5001L9 33.5001V34.5001ZM4.5 30.0001C4.5 32.4853 6.51472 34.5001 9 34.5001V33.5001C7.067 33.5001 5.5 31.9331 5.5 30.0001H4.5ZM4.5 8.00006V30.0001H5.5V8.00006H4.5ZM9 3.50006C6.51472 3.50006 4.5 5.51478 4.5 8.00006H5.5C5.5 6.06706 7.067 4.50006 9 4.50006V3.50006Z" fill="#DFE0EB" mask="url(#path-1-outside-1_1_3027)"/>
</g>
<defs>
<filter id="filter0_d_1_3027" x="0.5" y="0.500061" width="172" height="44.8732" filterUnits="userSpaceOnUse" color-interpolation-filters="sRGB">
<feFlood flood-opacity="0" result="BackgroundImageFix"/>
<feColorMatrix in="SourceAlpha" type="matrix" values="0 0 0 0 0 0 0 0 0 0 0 0 0 0 0 0 0 0 127 0" result="hardAlpha"/>
<feOffset dy="1"/>
<feGaussianBlur stdDeviation="2"/>
<feColorMatrix type="matrix" values="0 0 0 0 0 0 0 0 0 0 0 0 0 0 0 0 0 0 0.08 0"/>
<feBlend mode="normal" in2="BackgroundImageFix" result="effect1_dropShadow_1_3027"/>
<feBlend mode="normal" in="SourceGraphic" in2="effect1_dropShadow_1_3027" result="shape"/>
</filter>
</defs>
</svg>
