<svg width="32" height="32" viewBox="0 0 32 32" fill="none" xmlns="http://www.w3.org/2000/svg">
<path fill-rule="evenodd" clip-rule="evenodd" d="M10.2253 9.79889L5.66288 15.1223C5.44501 15.3708 5.33354 15.6846 5.33337 16C5.33326 16.2158 5.38526 16.4324 5.49094 16.6294C5.53791 16.7172 5.59527 16.8006 5.66288 16.8777L10.2253 22.2011C10.7045 22.7602 11.5462 22.825 12.1053 22.3458C12.6644 21.8666 12.7292 21.0249 12.25 20.4657L9.56549 17.3334H19.8917C20.6281 17.3334 21.225 16.7364 21.225 16.0001C21.225 15.2637 20.6281 14.6667 19.8917 14.6667L9.56534 14.6667L12.25 11.5342C12.7292 10.9751 12.6644 10.1334 12.1053 9.65417C11.5462 9.17497 10.7045 9.23977 10.2253 9.79889ZM18.6667 24.0001C17.9303 24.0001 17.3334 23.4031 17.3334 22.6667V20.6667C17.3334 19.9304 16.7364 19.3334 16 19.3334C15.2637 19.3334 14.6667 19.9304 14.6667 20.6667V22.6667C14.6667 24.8759 16.4576 26.6667 18.6667 26.6667H22.6667C24.8758 26.6667 26.6667 24.8759 26.6667 22.6667V9.33341C26.6667 7.12428 24.8758 5.33341 22.6667 5.33341H18.6667C16.4576 5.33341 14.6667 7.12428 14.6667 9.33341V11.3334C14.6667 12.0698 15.2637 12.6667 16 12.6667C16.7364 12.6667 17.3334 12.0698 17.3334 11.3334V9.33341C17.3334 8.59703 17.9303 8.00008 18.6667 8.00008H22.6667C23.4031 8.00008 24 8.59703 24 9.33341V22.6667C24 23.4031 23.4031 24.0001 22.6667 24.0001H18.6667Z" fill="#737791"/>
</svg>
